HIERARCHY
ROOT hip
{
	OFFSET 0.000000 0.000000 0.000000 
	CHANNELS 6 Xposition Yposition Zposition Xrotation Zrotation Yrotation
	JOINT abdomen
	{
		OFFSET 0.000000 3.402643 0.000000 
		CHANNELS 3 Xrotation Zrotation Yrotation
		JOINT chest
		{
			OFFSET 0.000000 8.438565 -0.680529 
			CHANNELS 3 Xrotation Zrotation Yrotation
			JOINT neck
			{
				OFFSET 0.000000 10.207942 -0.272212 
				CHANNELS 3 Xrotation Zrotation Yrotation
				JOINT head
				{
					OFFSET 0.000000 3.130431 0.000000 
					CHANNELS 3 Xrotation Zrotation Yrotation
					End Site
					{
						OFFSET 0.000000 3.130435 0.000000 
					}
				}
			}
			JOINT lCollar
			{
				OFFSET 3.470700 6.669187 -0.816635 
				CHANNELS 3 Yrotation Zrotation Xrotation
				JOINT lShldr
				{
					OFFSET 3.198488 0.000000 0.000000 
					CHANNELS 3 Zrotation Yrotation Xrotation
					JOINT lForeArm
					{
						OFFSET 10.139888 0.000000 0.000000 
						CHANNELS 3 Yrotation Zrotation Xrotation
						JOINT lHand
						{
							OFFSET 8.370511 0.000000 0.000000 
							CHANNELS 3 Zrotation Yrotation Xrotation
							End Site
							{
								OFFSET 4.083176 0.000000 0.000000 
							}
						}
					}
				}
			}
			JOINT rCollar
			{
				OFFSET -3.470700 6.669187 -0.816635 
				CHANNELS 3 Yrotation Zrotation Xrotation
				JOINT rShldr
				{
					OFFSET -3.198488 0.000000 0.000000 
					CHANNELS 3 Zrotation Yrotation Xrotation
					JOINT rForeArm
					{
						OFFSET -10.139888 0.000000 0.000000 
						CHANNELS 3 Yrotation Zrotation Xrotation
						JOINT rHand
						{
							OFFSET -8.370511 0.000000 0.000000 
							CHANNELS 3 Zrotation Yrotation Xrotation
							End Site
							{
								OFFSET -4.083176 0.000000 0.000000 
							}
						}
					}
				}
			}
		}
	}
	JOINT lThigh
	{
		OFFSET 5.308129 -1.633274 1.361059 
		CHANNELS 3 Xrotation Zrotation Yrotation
		JOINT lShin
		{
			OFFSET -2.041588 -20.007561 0.000000 
			CHANNELS 3 Xrotation Zrotation Yrotation
			JOINT lFoot
			{
				OFFSET 0.000000 -19.190928 -1.224953 
				CHANNELS 3 Xrotation Yrotation Zrotation
				End Site
				{
					OFFSET 0.000000 -2.449906 4.627600 
				}
			}
		}
	}
	JOINT rThigh
	{
		OFFSET -5.308129 -1.633274 1.361059 
		CHANNELS 3 Xrotation Zrotation Yrotation
		JOINT rShin
		{
			OFFSET 2.041588 -20.007561 0.000000 
			CHANNELS 3 Xrotation Zrotation Yrotation
			JOINT rFoot
			{
				OFFSET 0.000000 -19.190928 -1.224953 
				CHANNELS 3 Xrotation Yrotation Zrotation
				End Site
				{
					OFFSET 0.000000 -2.449906 4.627600 
				}
			}
		}
	}
}
MOTION
Frames: 8
Frame Time: 0.011111
35.089180 49.545650 -54.261353 1.287217 1.837725 -3.533776 31.280397 -1.229514 1.705759 -35.105835 -0.937586 0.666357 -15.557682 3.758612 0.505238 26.937000 -11.357507 -0.141899 -10.256527 -0.734681 -0.809317 -18.464821 -60.128284 10.616522 -81.662888 5.599614 23.557169 8.524705 12.647240 -67.200569 6.318032 -3.285348 0.526703 26.450994 60.238121 12.724151 82.770790 -4.888749 24.378296 -8.534408 -12.637552 18.109232 -21.760324 9.361577 3.149291 52.846596 -3.519531 -7.477168 -32.807018 -11.372924 -8.636134 -20.295099 -10.025317 -2.642110 53.866894 3.408176 7.566546 -36.289619 -4.984862 -2.678513 
35.093491 49.547443 -54.265659 1.257973 1.796222 -3.506283 31.328796 -1.171249 1.718623 -35.184059 -0.967320 0.663805 -15.382916 3.832917 0.498512 26.669857 -11.375454 -0.102144 -10.256527 -0.734681 -0.809317 -18.520884 -59.944836 10.745963 -81.698135 5.579016 23.580179 8.524705 12.647240 -67.112679 6.318032 -3.285348 0.526703 26.548651 60.165661 12.797383 82.770790 -4.888749 24.378296 -8.534408 -12.637552 18.109232 -21.749945 9.390678 3.126107 52.826443 -3.509861 -7.499932 -32.732983 -11.374985 -8.625353 -20.249668 -9.998005 -2.685689 53.827770 3.408113 7.563276 -36.274647 -5.032684 -2.691945 
35.103188 49.543854 -54.274998 1.267819 1.854535 -3.465627 31.339277 -1.202753 1.647847 -35.252472 -0.970383 0.645811 -15.266113 3.863081 0.509691 26.529861 -11.378906 -0.067205 -10.256527 -0.734681 -0.809317 -18.548180 -59.818577 10.839117 -81.706184 5.573595 23.591137 8.524705 12.647240 -67.112679 6.318032 -3.285348 0.526703 26.605364 60.159492 12.853849 82.769096 -4.887573 24.378475 -8.534408 -12.637552 18.128765 -21.759609 9.302732 3.088518 52.807022 -3.529351 -7.478514 -32.747345 -11.360001 -8.628925 -20.250769 -10.096011 -2.733161 53.798756 3.408044 7.551176 -36.241348 -5.069701 -2.696114 
35.110374 49.551041 -54.271767 1.238660 1.920263 -3.426043 31.359308 -1.256419 1.597459 -35.271954 -0.951017 0.642282 -15.264731 3.798863 0.496815 26.625168 -11.276592 -0.107143 -10.256527 -0.734681 -0.809317 -18.566000 -59.849342 10.867986 -81.662888 5.599614 23.557169 8.524705 12.647240 -67.249397 6.318032 -3.285348 0.526703 26.633532 60.112080 12.890633 82.777267 -4.881360 24.379566 -8.534408 -12.637552 18.109232 -21.679562 9.199256 3.055242 52.757488 -3.543067 -7.480843 -32.654987 -11.350426 -8.617952 -20.200102 -10.192894 -2.751942 53.769772 3.416268 7.533682 -36.249752 -4.912729 -2.616855 
35.112888 49.559654 -54.268536 1.199682 1.917316 -3.398060 31.408113 -1.253009 1.590118 -35.272026 -0.979735 0.648072 -15.379884 3.692430 0.466821 26.866056 -11.094265 -0.191920 -10.256527 -0.734681 -0.809317 -18.513317 -59.924618 10.882902 -81.619446 5.625467 23.522259 8.524705 12.647240 -67.151741 6.318032 -3.285348 0.526703 26.643658 60.073345 12.879565 82.794395 -4.870777 24.401148 -8.534408 -12.637552 18.109232 -21.610397 9.169737 3.020605 52.738945 -3.527312 -7.462228 -32.607597 -11.342361 -8.594400 -20.143101 -10.213075 -2.780321 53.759277 3.408206 7.557666 -36.257622 -4.851825 -2.568320 
35.113960 49.560375 -54.277878 1.248475 1.900044 -3.367561 31.368649 -1.237039 1.602197 -35.213478 -0.999547 0.650909 -15.536056 3.667578 0.471836 27.011087 -11.052545 -0.185678 -10.256527 -0.734681 -0.809317 -18.419546 -60.056263 10.831180 -81.567657 5.657772 23.496832 8.524705 12.647240 -66.917374 6.318032 -3.285348 0.526703 26.600025 60.119747 12.775406 82.795242 -4.871360 24.401058 -8.534408 -12.637552 18.099466 -21.695074 9.177730 2.988951 52.738518 -3.529423 -7.472851 -32.710510 -11.351709 -8.604739 -20.204908 -10.195300 -2.801256 53.759277 3.408203 7.557663 -36.231922 -4.987549 -2.641024 
35.112526 49.553192 -54.285057 1.297198 1.874065 -3.386131 31.310051 -1.238207 1.630684 -35.145020 -0.969682 0.653568 -15.615476 3.716079 0.492267 27.021435 -11.118518 -0.121051 -10.256527 -0.734681 -0.809317 -18.372107 -60.112202 10.756862 -81.532074 5.677315 23.463135 8.524705 12.647240 -66.888069 6.318032 -3.285348 0.526703 26.543295 60.125923 12.737177 82.803368 -4.865764 24.411894 -8.534408 -12.637552 18.099466 -21.750250 9.205549 2.955014 52.757744 -3.537236 -7.478150 -32.747887 -11.363398 -8.619776 -20.270718 -10.155023 -2.784613 53.769009 3.417874 7.553458 -36.224167 -5.050597 -2.679293 
35.112888 49.550316 -54.289730 1.297156 1.835233 -3.396779 31.299988 -1.186598 1.657318 -35.105949 -0.970127 0.652906 -15.625432 3.725537 0.488875 27.011908 -11.114259 -0.130280 -10.256527 -0.734681 -0.809317 -18.332808 -60.089867 10.728998 -81.505539 5.692899 23.450977 8.524705 12.647240 -66.907600 6.318032 -3.285348 0.526703 26.519699 60.065304 12.795619 82.827736 -4.847649 24.424084 -8.534408 -12.637552 18.128765 -21.762444 9.255410 2.939182 52.768635 -3.527354 -7.455051 -32.721985 -11.349062 -8.604176 -20.252499 -10.106755 -2.771235 53.749496 3.408187 7.556846 -36.228539 -4.928817 -2.616709 
